<svg height="482pt" viewBox="0 -4 482.85488 482" width="482pt" xmlns="http://www.w3.org/2000/svg"><path d="m371.519531 207.867188c70.777344 12.175781 119.390625 77.960937 110.242188 149.195312-9.144531 71.230469-72.804688 122.601562-144.359375 116.496094-71.558594-6.101563-125.59375-67.515625-122.542969-139.265625 3.050781-71.753907 62.101563-128.355469 133.921875-128.367188 7.621094-.003906 15.226562.644531 22.738281 1.941407zm0 0" fill="#fedb41"/><path d="m371.519531 20.425781v187.441407c-15.566406-2.675782-31.484375-2.582032-47.019531.28125l-.03125-.140626v-40.742187h-58.679688v57.230469h15.171876c-26.382813 15.671875-46.558594 39.960937-57.121094 68.769531h-.011719c-3.476563-6.503906-10.257813-10.566406-17.636719-10.558594h-40.871094c-11.046874 0-20 8.953125-20 20v88.640625h-145.320312v-370.921875c-.00390625-11.046875 8.953125-20 20-20h331.519531c11.046875 0 20 8.957031 20 20zm-47.050781 88.160157v-57.226563h-58.679688v57.226563zm-104.757812 115.910156v-57.230469h-68.390626v57.230469zm-113.980469 115.441406v-57.230469h-58.679688v57.230469zm0-115.441406v-57.230469h-58.679688v57.230469zm0-115.910156v-57.226563h-58.679688v57.226563zm0 0" fill="#00acea"/><g fill="#00efd1"><path d="m324.46875 208.007812.03125.140626c-15.367188 2.828124-30.109375 8.363281-43.539062 16.347656h-15.171876v-57.230469h58.679688zm0 0"/><path d="m265.789062 51.359375h58.679688v57.226563h-58.679688zm0 0"/><path d="m226.539062 391.347656h-81.21875v-88.640625c0-11.046875 8.953126-20 20-20h40.871094c7.378906-.007812 14.160156 4.054688 17.636719 10.558594h.011719c-11.585938 31.851563-10.621094 66.917969 2.699218 98.082031zm0 0"/><path d="m151.320312 167.265625h68.390626v57.230469h-68.390626zm0 0"/><path d="m47.050781 282.707031h58.679688v57.230469h-58.679688zm0 0"/><path d="m47.050781 167.265625h58.679688v57.230469h-58.679688zm0 0"/><path d="m47.050781 51.359375h58.679688v57.226563h-58.679688zm0 0"/></g><path d="m211.410156 66.15625h-15.53125v-15.917969c0-5.523437-4.476562-10-10-10-5.523437 0-10 4.476563-10 10v15.917969h-15.769531c-5.523437 0-10 4.476562-10 10s4.476563 10 10 10h15.769531v15.382812c0 5.519532 4.476563 10 10 10 5.523438 0 10-4.480468 10-10v-15.382812h15.53125c5.523438 0 10-4.476562 10-10s-4.476562-10-10-10zm0 0" fill="#f4b844"/><path d="m397.820312 275.246094c12.777344 13.3125 19.871094 31.078125 19.769532 49.53125.0625 18.933594-7.296875 37.136718-20.5 50.710937l-49.058594 58.4375-48.332031-57.707031c-26.609375-27.472656-26.359375-72.53125.730469-100.242188 12.890624-13.464843 30.710937-21.101562 49.351562-21.148437 18.125-.019531 35.472656 7.355469 48.039062 20.417969zm-14.941406 46.019531c0-18.84375-15.273437-34.117187-34.117187-34.117187s-34.121094 15.273437-34.121094 34.117187c0 18.847656 15.277344 34.121094 34.121094 34.121094 18.839843-.003907 34.113281-15.277344 34.117187-34.121094zm0 0" fill="#f4b844"/></svg>